# xmcd
#
# Track frame offsets:
#  150
#  12184
#  20764
#  35711
#  49250
#  63124
#  72901
#  84768
#  96246
#  107890
#  121066
#  136499
#  149424
#  163131
#  177896
#  189262
#  198218
#  209041
#
# Disc length: 2941 seconds
#
# Revision: 0
# Processed by: cddbd v1.5.1PL2 Copyright (c) Steve Scherf et al.
# Submitted via: Collectorz.com Music Collector 6.9
#
DISCID=010b7b12
DTITLE=Sacred Hearts - Cool Daddyo
DYEAR=1900
DGENRE=Rockabilly
TTITLE0=Chicken Shack
TTITLE1=Dear Dad
TTITLE2=You Never Can Tell
TTITLE3=Smoke That Cigarette
TTITLE4=Red Hot
TTITLE5=Factory Girl
TTITLE6=Don't Mess With My Toot Toot
TTITLE7=Honey Don't
TTITLE8=Black Slacks
TTITLE9=Blue Moon
TTITLE10=To Her Door
TTITLE11=Jambalaya
TTITLE12=Memphis Tennessee
TTITLE13=Fire
TTITLE14=Seven Nights To Rock
TTITLE15=Summertime Blues
TTITLE16=No Particular Place To Go
TTITLE17=Ready Willing And Able
EXTD=
EXTT0=
EXTT1=
EXTT2=
EXTT3=
EXTT4=
EXTT5=
EXTT6=
EXTT7=
EXTT8=
EXTT9=
EXTT10=
EXTT11=
EXTT12=
EXTT13=
EXTT14=
EXTT15=
EXTT16=
EXTT17=
PLAYORDER=
